<svg xmlns="http://www.w3.org/2000/svg" viewBox="0 0 400 320">
  <defs>
    <radialGradient id="sombra-dell-xps-13-angle" cx="50%" cy="50%" r="50%">
      <stop offset="0%" stop-color="#0a0e1a" stop-opacity="0.22"/>
      <stop offset="100%" stop-color="#0a0e1a" stop-opacity="0"/>
    </radialGradient>
  </defs>
  <rect width="400" height="320" fill="none"/>
  <ellipse cx="200" cy="278" rx="120" ry="18" fill="url(#sombra-dell-xps-13-angle)"/>
  
    <defs>
      <linearGradient id="tapa-dell-xps-13-angle" x1="0" y1="0" x2="1" y2="1">
        <stop offset="0%" stop-color="rgb(86, 112, 195)"/>
        <stop offset="100%" stop-color="rgb(18, 38, 105)"/>
      </linearGradient>
      <linearGradient id="pantalla-dell-xps-13-angle" x1="0" y1="0" x2="1" y2="1">
        <stop offset="0%" stop-color="rgb(53, 83, 183)"/>
        <stop offset="100%" stop-color="rgb(15, 32, 88)"/>
      </linearGradient>
    </defs>
    <g transform="translate(200,150) rotate(-6) translate(-200,-150)">
      <path d="M70,60 L300,50 L320,190 L60,206 Z" fill="url(#tapa-dell-xps-13-angle)"/>
      <path d="M84,68 L288,60 L302,178 L76,192 Z" fill="url(#pantalla-dell-xps-13-angle)"/>
      <path d="M84,68 L140,64 L136,186 L76,192 Z" fill="#ffffff" opacity="0.1"/>
      <path d="M40,206 L330,192 L360,234 L15,250 Z" fill="rgb(24, 51, 140)"/>
      <path d="M40,206 L330,192 L338,204 L48,218 Z" fill="#ffffff" opacity="0.12"/>
    </g>
  
</svg>