<svg xmlns="http://www.w3.org/2000/svg" viewBox="0 0 400 320">
  <defs>
    <radialGradient id="sombra-hp-pavilion-15-front" cx="50%" cy="50%" r="50%">
      <stop offset="0%" stop-color="#0a0e1a" stop-opacity="0.22"/>
      <stop offset="100%" stop-color="#0a0e1a" stop-opacity="0"/>
    </radialGradient>
  </defs>
  <rect width="400" height="320" fill="none"/>
  <ellipse cx="200" cy="278" rx="120" ry="18" fill="url(#sombra-hp-pavilion-15-front)"/>
  
    <defs>
      <linearGradient id="tapa-hp-pavilion-15-front" x1="0" y1="0" x2="0" y2="1">
        <stop offset="0%" stop-color="rgb(79, 150, 189)"/>
        <stop offset="100%" stop-color="rgb(2, 68, 105)"/>
      </linearGradient>
      <linearGradient id="fondo-pantalla-hp-pavilion-15-front" x1="0" y1="0" x2="1" y2="1">
        <stop offset="0%" stop-color="rgb(41, 128, 175)"/>
        <stop offset="100%" stop-color="rgb(2, 58, 89)"/>
      </linearGradient>
      <linearGradient id="base-hp-pavilion-15-front" x1="0" y1="0" x2="0" y2="1">
        <stop offset="0%" stop-color="rgb(23, 117, 169)"/>
        <stop offset="100%" stop-color="rgb(2, 79, 121)"/>
      </linearGradient>
    </defs>
    <rect x="65" y="42" width="270" height="172" rx="10" fill="url(#tapa-hp-pavilion-15-front)"/>
    <rect x="77" y="54" width="246" height="148" rx="4" fill="url(#fondo-pantalla-hp-pavilion-15-front)"/>
    <rect x="77" y="54" width="246" height="20" fill="#ffffff" opacity="0.08"/>
    <circle cx="90" cy="63" r="3" fill="#ef4444" opacity="0.7"/>
    <circle cx="100" cy="63" r="3" fill="#f59e0b" opacity="0.7"/>
    <circle cx="110" cy="63" r="3" fill="#22c55e" opacity="0.7"/>
    <rect x="95" y="90" width="90" height="10" rx="3" fill="#ffffff" opacity="0.35"/>
    <rect x="95" y="108" width="140" height="8" rx="3" fill="#ffffff" opacity="0.2"/>
    <rect x="95" y="124" width="110" height="8" rx="3" fill="#ffffff" opacity="0.2"/>
    <path d="M55,214 L345,214 L365,246 L35,246 Z" fill="url(#base-hp-pavilion-15-front)"/>
    <rect x="150" y="230" width="100" height="6" rx="3" fill="#05070d" opacity="0.18"/>
  
</svg>